<svg width="16" height="16" viewBox="0 0 16 16" xmlns="http://www.w3.org/2000/svg" fill="#424242">
  <!-- Dumpster body -->
  <rect x="2" y="4" width="12" height="8" rx="1" fill="#6b6b6b"/>
  <!-- Dumpster lid -->
  <rect x="1.2" y="2.6" width="13.6" height="1.4" rx="0.7" fill="#7f7f7f"/>
  <!-- Wheels -->
  <circle cx="5" cy="13.2" r="0.6" fill="#3a3a3a"/>
  <circle cx="11" cy="13.2" r="0.6" fill="#3a3a3a"/>
  <!-- Front lines -->
  <path d="M4 6v6" stroke="#8f8f8f" stroke-width="0.6" stroke-linecap="round"/>
  <path d="M8 6v6" stroke="#8f8f8f" stroke-width="0.6" stroke-linecap="round"/>
  <path d="M12 6v6" stroke="#8f8f8f" stroke-width="0.6" stroke-linecap="round"/>
  <!-- Overflowing trash: box and bottle -->
  <rect x="3.4" y="1.6" width="2" height="1.4" rx="0.2" fill="#e0e0e0" transform="rotate(-10 4.4 2.3)"/>
  <path d="M9.8 1.6c.2-.3.6-.3.8 0 .2.3.1.6-.1.8l-.6.9c-.2.3-.5.3-.7 0-.2-.3-.1-.7.1-.9l.5-.8z" fill="#ffd54f"/>
</svg>
